:version 1.10
:name ASF
:units
  mass 1
  length 1
  angle deg
:documentation
  ASF file generated by Kaydara
:root
  axis xyz
  order  tx ty tz rx ry rz
  position 0 0 0
  orientation 0 0 0
:bonedata
  begin
    id 1
    name RightUpLegDummy
    direction -1 2.30186e-007 8.31532e-007
    length 4.04083
    axis 0 0 0 xyz
  end
  begin
    id 2
    name RightUpLeg
    direction -0.000919234 -0.999985 0.00544864
    length 17.4221
    axis -3.80308 -0.00076134 -0.0523649 xyz
    dof rx ry rz
  end
  begin
    id 3
    name RightLeg
    direction -0.000919271 -0.999984 -0.00555045
    length 17.1239
    axis 4.00314 0.0181274 -0.183583 xyz
    dof rx ry rz
  end
  begin
    id 4
    name RightFoot
    direction -2.57843e-005 -4.04509e-007 1
    length 6.72091
    axis 8.18909e-005 -0.122003 -0.403008 xyz
    dof rx ry rz
  end
  begin
    id 5
    name RightToes
    direction 0.00116825 -0.014069 0.9999
    length 3.85082
    axis 0.000514414 0.540638 -0.356797 xyz
    dof rx ry rz
  end
  begin
    id 6
    name SpineDummy
    direction 0.0168869 0.966876 -0.254689
    length 6.99894
    axis 0 0 0 xyz
  end
  begin
    id 7
    name Spine
    direction -0.0132008 0.999903 0.00446247
    length 11.1999
    axis -0.00148109 0.00725429 0.756411 xyz
    dof rx ry rz
  end
  begin
    id 8
    name Spine1
    direction 0 0 0
    length 0
    axis -0.000934958 0.0245693 1.46543 xyz
    dof rx ry rz
  end
  begin
    id 9
    name HEadDummy
    direction -0.0255732 0.999672 0.00128215
    length 3.43865
    axis -0.000934958 0.0245693 1.46543 xyz
  end
  begin
    id 10
    name HEad
    direction -0.0472656 0.980052 0.19304
    length 5.12695
    axis -0.000934954 0.0245693 1.46543 xyz
    dof rx ry rz
  end
  begin
    id 11
    name LeftShoulder1Dummy
    direction 0.953098 0.301717 -0.023914
    length 3.68488
    axis -0.000934958 0.0245693 1.46543 xyz
  end
  begin
    id 12
    name LeftShoulder1
    direction 0.962466 0.271167 0.0112566
    length 3.13809
    axis -0.000934958 0.0245693 1.46543 xyz
    dof rx ry rz
  end
  begin
    id 13
    name LeftArm
    direction 0.999943 0.00455037 -0.00961766
    length 11.3419
    axis -23.1648 0.685459 1.22814 xyz
    dof rx ry rz
  end
  begin
    id 14
    name LeftForeArm
    direction 0.999332 0.0131969 0.0340885
    length 8.70632
    axis -9.90633 0.618216 0.0826942 xyz
    dof rx ry rz
  end
  begin
    id 15
    name LeftHand
    direction 0.994373 -0.0366703 0.0993905
    length 5.32135
    axis 0.00675269 0.680415 0.445699 xyz
    dof rx ry rz
  end
  begin
    id 16
    name RightShoulderDummy
    direction -0.967298 0.252589 -0.0230903
    length 3.68488
    axis -0.000934958 0.0245693 1.46543 xyz
  end
  begin
    id 17
    name RightShoulder
    direction -0.975062 0.221602 0.0120823
    length 3.13809
    axis 0.216257 0.0246515 1.45863 xyz
    dof rx ry rz
  end
  begin
    id 18
    name RightArm
    direction -0.99886 -0.00851186 -0.0469687
    length 10.3947
    axis -23.196 0.23503 -0.532632 xyz
    dof rx ry rz
  end
  begin
    id 19
    name RightForeArm
    direction -0.99909 0.00114866 0.0426317
    length 8.68355
    axis -9.91764 -0.134943 0.610517 xyz
    dof rx ry rz
  end
  begin
    id 20
    name RightHand
    direction -0.992888 -0.0489538 0.10852
    length 5.28593
    axis -0.00275396 -0.197403 0.246414 xyz
    dof rx ry rz
  end
  begin
    id 21
    name LeftUpLegDummy
    direction 1 -2.30186e-007 -8.31532e-007
    length 4.04083
    axis 0 0 0 xyz
  end
  begin
    id 22
    name LeftUpLeg
    direction -0.000920097 -1 2.79241e-006
    length 17.4221
    axis -3.48782 0.00143434 -0.0532288 xyz
    dof rx ry rz
  end
  begin
    id 23
    name LeftLeg
    direction -0.000920097 -1 2.7912e-006
    length 17.1239
    axis 3.68162 -0.00806512 -0.0529896 xyz
    dof rx ry rz
  end
  begin
    id 24
    name LeftFoot
    direction -2.57845e-005 -3.987e-007 1
    length 6.72091
    axis 3.02372e-005 -0.00147829 -0.214229 xyz
    dof rx ry rz
  end
  begin
    id 25
    name LeftToes
    direction 0.00813577 -0.00488255 0.999955
    length 3.85048
    axis 3.89895e-005 -0.0014783 -0.214229 xyz
    dof rx ry rz
  end
:hierarchy
  begin
    root RightUpLegDummy SpineDummy LeftUpLegDummy
    RightUpLegDummy RightUpLeg
    RightUpLeg RightLeg
    RightLeg RightFoot
    RightFoot RightToes
    SpineDummy Spine
    Spine Spine1
    Spine1 HEadDummy LeftShoulder1Dummy RightShoulderDummy
    HEadDummy HEad
    LeftShoulder1Dummy LeftShoulder1
    LeftShoulder1 LeftArm
    LeftArm LeftForeArm
    LeftForeArm LeftHand
    RightShoulderDummy RightShoulder
    RightShoulder RightArm
    RightArm RightForeArm
    RightForeArm RightHand
    LeftUpLegDummy LeftUpLeg
    LeftUpLeg LeftLeg
    LeftLeg LeftFoot
    LeftFoot LeftToes
  end

:SAMPLES-PER-SECOND 30
:FULLY-SPECIFIED
:DEGREES
83
root  -41.5746 34.739 4.40048 -85.7688 89.055 -93.7012
RightUpLeg  -7.7112 -16.0446 -1.0029
RightLeg  6.50869 -2.13488 -0.104068
RightFoot  5.38032 0.0257634 -0.0511566
RightToes  -27.2404 -0.120204 -0.245945
Spine  -1.97017 -0.120627 0.642619
Spine1  -4.00725 -0.173219 1.87753
HEad  -66.0058 -4.95593 6.15456
LeftShoulder1  -1.94126e-019 -3.10601e-018 -2.51263e-017
LeftArm  -6.37519 24.8873 -82.268
LeftForeArm  35.0583 -17.986 -2.94662
LeftHand  -0.442457 -1.8449 7.24011
RightShoulder  -4.96962e-017 0 -2.36833e-017
RightArm  -27.8115 -24.4489 76.1551
RightForeArm  56.5858 13.7977 1.27771
RightHand  -0.421417 -0.813863 -10.6572
LeftUpLeg  -6.52959 6.62452 5.1872
LeftLeg  5.02598 14.0944 0.3267
LeftFoot  8.26509 -0.146947 2.17438
LeftToes  -28.8271 2.40056e-006 -7.68412e-008
84
root  -41.5797 34.7475 4.4018 -91.1635 89.0457 -99.1055
RightUpLeg  -7.63825 -16.0718 -0.991709
RightLeg  6.35089 -2.20378 -0.101383
RightFoot  5.47357 0.0265679 -0.0607564
RightToes  -27.2478 -0.119877 -0.24621
Spine  -1.94601 -0.120003 0.634785
Spine1  -3.95725 -0.170704 1.86445
HEad  -65.98 -4.74176 6.2674
LeftShoulder1  -1.94126e-019 -3.10601e-018 -2.51263e-017
LeftArm  -5.97545 24.819 -82.2056
LeftForeArm  35.0972 -18.0715 -2.97654
LeftHand  -0.439808 -1.87006 7.27268
RightShoulder  -4.96962e-017 0 -2.36833e-017
RightArm  -27.4633 -24.3635 76.1159
RightForeArm  56.523 13.8067 1.27569
RightHand  -0.422093 -0.800486 -10.6353
LeftUpLeg  -6.50307 6.57693 5.19107
LeftLeg  4.88874 14.0594 0.292567
LeftFoot  8.37106 -0.149473 2.19678
LeftToes  -28.9232 2.40056e-006 -7.68412e-008
85
root  -41.5851 34.7563 4.40226 -97.031 89.0252 -104.992
RightUpLeg  -7.54339 -16.1588 -0.981396
RightLeg  6.12948 -2.20888 -0.0930807
RightFoot  5.5971 0.0270541 -0.0657452
RightToes  -27.2347 -0.119554 -0.24646
Spine  -1.94106 -0.116983 0.626504
Spine1  -3.94546 -0.16332 1.85196
HEad  -65.7702 -4.66663 6.29276
LeftShoulder1  -1.94126e-019 -3.10601e-018 -2.51263e-017
LeftArm  -5.59586 24.7936 -82.163
LeftForeArm  35.1506 -18.2359 -3.01039
LeftHand  -0.441313 -1.93384 7.18388
RightShoulder  -4.96962e-017 0 -2.36833e-017
RightArm  -27.1514 -24.3066 76.0951
RightForeArm  56.4974 13.7951 1.27911
RightHand  -0.421828 -0.821209 -10.6341
LeftUpLeg  -6.47969 6.51428 5.18977
LeftLeg  4.7384 14.0214 0.255372
LeftFoot  8.46136 -0.151914 2.21495
LeftToes  -28.8615 2.40056e-006 -7.68412e-008
86
root  -41.5924 34.7654 4.40241 -103.228 88.9966 -111.215
RightUpLeg  -7.45834 -16.2979 -0.970798
RightLeg  5.90773 -2.19136 -0.083855
RightFoot  5.709 0.0272624 -0.0666979
RightToes  -27.2319 -0.119237 -0.246694
Spine  -1.94642 -0.0998488 0.616047
Spine1  -3.95418 -0.127683 1.83529
HEad  -65.6978 -4.50765 6.5092
LeftShoulder1  -1.94126e-019 -3.10601e-018 -2.51263e-017
LeftArm  -5.15762 24.782 -82.1446
LeftForeArm  35.1002 -18.4839 -3.05046
LeftHand  -0.442515 -1.92434 7.21159
RightShoulder  -4.96962e-017 0 -2.36833e-017
RightArm  -26.8502 -24.2947 76.0939
RightForeArm  56.2147 13.8232 1.27873
RightHand  -0.421309 -0.870985 -10.633
LeftUpLeg  -6.47045 6.45914 5.18809
LeftLeg  4.58883 13.9695 0.218347
LeftFoot  8.57396 -0.155549 2.23637
LeftToes  -28.8954 2.40056e-006 -7.68412e-008
87
root  -41.6007 34.7736 4.40233 -107.748 88.9609 -115.775
RightUpLeg  -7.40548 -16.4112 -0.961324
RightLeg  5.71318 -2.15331 -0.075076
RightFoot  5.81784 0.027507 -0.0681054
RightToes  -27.2114 -0.118926 -0.246911
Spine  -1.95226 -0.0740564 0.602467
Spine1  -3.96381 -0.0746383 1.81197
HEad  -65.6091 -4.4445 6.63731
LeftShoulder1  -1.94126e-019 -3.10601e-018 -2.51263e-017
LeftArm  -4.3851 24.8395 -82.1161
LeftForeArm  35.5632 -18.6914 -3.07553
LeftHand  -0.495097 -2.13889 7.83269
RightShoulder  -4.96962e-017 0 -2.36833e-017
RightArm  -26.4916 -24.2869 76.102
RightForeArm  56.102 13.8734 1.27336
RightHand  -0.419902 -0.900644 -10.6572
LeftUpLeg  -6.47589 6.46392 5.17564
LeftLeg  4.4453 13.8952 0.182749
LeftFoot  8.65012 -0.158331 2.24498
LeftToes  -28.8107 2.40056e-006 -7.68412e-008
88
root  -41.6183 34.7833 4.40213 -111.357 88.9396 -119.423
RightUpLeg  -7.39914 -16.4358 -0.950981
RightLeg  5.57971 -2.19298 -0.0713729
RightFoot  5.90758 0.0281341 -0.074913
RightToes  -27.2236 -0.11862 -0.247109
Spine  -1.92432 -0.0484097 0.580748
Spine1  -3.90594 -0.0216995 1.77162
HEad  -65.6327 -4.3515 6.68738
LeftShoulder1  -1.94126e-019 -3.10601e-018 -2.51263e-017
LeftArm  -4.09439 24.6723 -82.0918
LeftForeArm  34.7106 -19.1526 -3.15275
LeftHand  -0.447498 -1.96817 7.25058
RightShoulder  -4.96962e-017 0 -2.36833e-017
RightArm  -26.2321 -24.1731 76.1506
RightForeArm  56.0476 13.9253 1.26704
RightHand  -0.419866 -0.88102 -10.6384
LeftUpLeg  -6.48001 6.3901 5.16078
LeftLeg  4.28225 13.8944 0.143602
LeftFoot  8.78007 -0.162699 2.27871
LeftToes  -28.8764 2.40056e-006 -7.68412e-008
89
root  -41.6425 34.7913 4.40191 -115.269 88.8945 -123.407
RightUpLeg  -7.45725 -16.4543 -0.918956
RightLeg  5.49039 -2.26366 -0.0701784
RightFoot  5.98563 0.0289473 -0.0843121
RightToes  -27.2252 -0.118322 -0.247287
Spine  -1.89742 -0.0285421 0.56107
Spine1  -3.85072 0.020705 1.73496
HEad  -65.8117 -4.18713 6.72492
LeftShoulder1  -1.94126e-019 -3.10601e-018 -2.51263e-017
LeftArm  -3.41071 24.6335 -82.0982
LeftForeArm  34.9776 -19.4499 -3.18661
LeftHand  -0.487045 -2.04654 7.7975
RightShoulder  -4.96962e-017 0 -2.36833e-017
RightArm  -25.8418 -24.0558 76.1948
RightForeArm  55.796 14.0469 1.25403
RightHand  -0.419565 -0.901084 -10.6208
LeftUpLeg  -6.54624 6.3211 5.1506
LeftLeg  4.14701 13.8889 0.111099
LeftFoot  8.89069 -0.166799 2.30676
LeftToes  -28.8687 2.40056e-006 -7.68412e-008
90
root  -41.672 34.8001 4.40175 -120.253 88.8185 -128.515
RightUpLeg  -7.59415 -16.6715 -0.85641
RightLeg  5.43646 -2.17459 -0.0653371
RightFoot  6.04351 0.0286171 -0.0773044
RightToes  -27.1866 -0.118031 -0.247443
Spine  -1.86778 -0.0195116 0.539531
Spine1  -3.7897 0.041664 1.69387
HEad  -66.0563 -4.0088 6.76
LeftShoulder1  -1.94126e-019 -3.10601e-018 -2.51263e-017
LeftArm  -3.39977 24.4287 -82.1497
LeftForeArm  34.5046 -19.8769 -3.26464
LeftHand  -0.452587 -2.02908 7.27523
RightShoulder  -4.96962e-017 0 -2.36833e-017
RightArm  -25.5568 -23.8609 76.2332
RightForeArm  55.7033 14.089 1.24959
RightHand  -0.41624 -0.8641 -10.7002
LeftUpLeg  -6.67331 6.26595 5.14136
LeftLeg  3.99768 13.8271 0.0749427
LeftFoot  9.00898 -0.170633 2.32723
LeftToes  -28.8637 2.40056e-006 -7.68412e-008
91
root  -41.6971 34.8088 4.40177 -123.471 88.7697 -131.851
RightUpLeg  -7.66485 -16.618 -0.813109
RightLeg  5.2738 -2.31651 -0.0630943
RightFoot  6.15795 0.0300592 -0.0955537
RightToes  -27.1547 -0.117748 -0.247577
Spine  -1.85566 -0.00653206 0.522719
Spine1  -3.7639 0.0702932 1.66386
HEad  -66.2024 -3.83644 6.71428
LeftShoulder1  -1.94126e-019 -3.10601e-018 -2.51263e-017
LeftArm  -2.50738 24.4274 -82.1444
LeftForeArm  34.5225 -20.1838 -3.29625
LeftHand  -0.481816 -2.05613 7.70663
RightShoulder  -4.96962e-017 0 -2.36833e-017
RightArm  -25.1127 -23.7695 76.2313
RightForeArm  55.4663 14.2574 1.2307
RightHand  -0.417772 -0.861506 -10.6215
LeftUpLeg  -6.78395 6.2354 5.12367
LeftLeg  3.85267 13.7906 0.0401997
LeftFoot  9.14452 -0.175525 2.35615
LeftToes  -28.9094 2.40056e-006 -7.68412e-008
92
root  -41.7204 34.8179 4.40203 -127.438 88.689 -135.952
RightUpLeg  -7.72076 -16.7139 -0.762289
RightLeg  5.05851 -2.33846 -0.0549304
RightFoot  6.28565 0.0307242 -0.102628
RightToes  -27.1742 -0.117473 -0.247687
Spine  -1.83657 -0.00522119 0.503627
Spine1  -3.72377 0.0751505 1.62924
HEad  -66.3085 -3.75231 6.66314
LeftShoulder1  -1.94126e-019 -3.10601e-018 -2.51263e-017
LeftArm  -2.55466 24.2657 -82.2329
LeftForeArm  34.1086 -20.5049 -3.35517
LeftHand  -0.444419 -2.03278 7.14406
RightShoulder  -4.96962e-017 0 -2.36833e-017
RightArm  -24.7136 -23.6257 76.2114
RightForeArm  55.2554 14.3745 1.21866
RightHand  -0.417339 -0.874425 -10.6011
LeftUpLeg  -6.90274 6.15212 5.10575
LeftLeg  3.68816 13.7748 0.00100627
LeftFoot  9.27536 -0.180258 2.3873
LeftToes  -28.9511 2.40056e-006 -7.68412e-008
93
root  -41.7383 34.8254 4.40281 -130.388 88.6043 -139.046
RightUpLeg  -7.77444 -16.879 -0.699811
RightLeg  4.83082 -2.28838 -0.0446633
RightFoot  6.41814 0.0308913 -0.102517
RightToes  -27.1959 -0.117208 -0.247771
Spine  -1.83502 0.0120605 0.479921
Spine1  -3.71902 0.111157 1.58389
HEad  -66.4593 -3.60638 6.79456
LeftShoulder1  -1.94126e-019 -3.10601e-018 -2.51263e-017
LeftArm  -1.74119 24.2753 -82.1981
LeftForeArm  34.3457 -20.7789 -3.38917
LeftHand  -0.48296 -2.17468 7.612
RightShoulder  -4.96962e-017 0 -2.36833e-017
RightArm  -24.4293 -23.5329 76.1707
RightForeArm  55.2595 14.458 1.20779
RightHand  -0.416481 -0.835185 -10.5972
LeftUpLeg  -7.04232 6.14292 5.0939
LeftLeg  3.56267 13.6938 -0.0286944
LeftFoot  9.38222 -0.183699 2.40072
LeftToes  -28.9924 2.40056e-006 -7.68412e-008
94
root  -41.7578 34.8332 4.40381 -133.515 88.4967 -142.405
RightUpLeg  -7.89869 -16.9544 -0.617111
RightLeg  4.56711 -2.34257 -0.0349883
RightFoot  6.57087 0.0319101 -0.114504
RightToes  -27.2293 -0.116953 -0.247829
Spine  -1.86054 0.0219779 0.456719
Spine1  -3.76815 0.132514 1.53975
HEad  -66.3404 -3.66967 6.37726
LeftShoulder1  -1.94126e-019 -3.10601e-018 -2.51263e-017
LeftArm  -1.2124 24.2358 -82.1746
LeftForeArm  34.1289 -21.0765 -3.43621
LeftHand  -0.479205 -2.16396 7.56432
RightShoulder  -4.96962e-017 0 -2.36833e-017
RightArm  -23.7848 -23.4834 76.052
RightForeArm  54.9033 14.5674 1.19993
RightHand  -0.413348 -0.926129 -10.6525
LeftUpLeg  -7.27277 5.98945 5.07715
LeftLeg  3.43695 13.7355 -0.0586109
LeftFoot  9.4726 -0.188074 2.43124
LeftToes  -28.9843 2.40056e-006 -7.68412e-008
95
root  -41.7644 34.8415 4.40484 -134.976 88.4443 -143.945
RightUpLeg  -7.87186 -17.089 -0.58123
RightLeg  4.34092 -2.28332 -0.0250968
RightFoot  6.68247 0.0319429 -0.112327
RightToes  -27.2082 -0.116707 -0.247858
Spine  -1.83547 0.0419646 0.435854
Spine1  -3.71581 0.172258 1.50164
HEad  -66.9905 -3.19516 6.66452
LeftShoulder1  -1.94126e-019 -3.10601e-018 -2.51263e-017
LeftArm  -1.27416 24.0905 -82.2217
LeftForeArm  33.6267 -21.3057 -3.48408
LeftHand  -0.437714 -2.02863 7.04275
RightShoulder  -4.96962e-017 0 -2.36833e-017
RightArm  -23.6298 -23.328 75.9364
RightForeArm  54.9741 14.5735 1.19794
RightHand  -0.412882 -0.884338 -10.635
LeftUpLeg  -7.29735 6.0941 5.06912
LeftLeg  3.272 13.5762 -0.0966484
LeftFoot  9.57784 -0.190101 2.43038
LeftToes  -28.9984 2.40056e-006 -7.68412e-008
